<svg xmlns:xlink="http://www.w3.org/1999/xlink" xmlns="http://www.w3.org/2000/svg" version="1.1" viewBox="0 0 50 50" class="svg-icon svg-fill" style="width: auto; height: 104px; color: var(--icon-default);" width="120"  height="120" ><path pid="0" d="M16.94 24.653c0-2.231 1.433-3.778 3.492-3.778.8 0 1.525.222 2.106.667v1.398c-.617-.593-1.316-.889-2.069-.889-1.397 0-2.296 1-2.296 2.602 0 1.574.899 2.602 2.296 2.602.753 0 1.443-.296 2.069-.89v1.399c-.581.444-1.306.666-2.105.666-2.06 0-3.493-1.546-3.493-3.777zm11.36 1.37h-3.603c.11.908.662 1.352 1.633 1.352.644 0 1.234-.176 1.697-.5v1.083c-.472.305-1.08.472-1.733.472-1.679 0-2.722-1.055-2.722-2.74 0-1.658.998-2.797 2.459-2.797 1.36 0 2.277 1.056 2.277 2.658v.472H28.3zm-3.576-.907h2.495c-.081-.787-.49-1.194-1.18-1.194-.707-.01-1.179.426-1.315 1.194zm9.182-.287v3.49h-1.143v-3.268c0-.667-.372-1.065-.962-1.065-.49 0-.934.287-1.152.75v3.583h-1.143v-5.314h1.061v.768c.346-.564.89-.88 1.561-.88 1.08 0 1.778.769 1.778 1.936zm1.107 3.13v-1.186c.535.426 1.161.63 1.896.63.69 0 1.017-.185 1.017-.574 0-.306-.182-.49-.59-.584l-.98-.222c-.835-.194-1.28-.713-1.28-1.49 0-1.01.8-1.64 2.105-1.64.645 0 1.207.14 1.616.399v1.185c-.454-.38-.998-.574-1.633-.574-.645 0-.98.204-.98.583 0 .278.18.454.544.528l.98.232c.88.213 1.343.713 1.343 1.49 0 1.046-.835 1.676-2.187 1.676-.717.018-1.343-.148-1.85-.454zm8.248-4.954h1.143v5.305h-1.035v-.796c-.344.583-.88.907-1.56.907-1.052 0-1.77-.778-1.77-1.926v-3.49h1.144v3.259c0 .657.38 1.065.962 1.065.49 0 .916-.287 1.124-.769v-3.555h-.008zm2.368 4.953v-1.185c.535.426 1.16.63 1.896.63.69 0 1.016-.185 1.016-.574 0-.306-.181-.49-.59-.584l-.98-.222c-.834-.194-1.279-.713-1.279-1.49 0-1.01.799-1.64 2.105-1.64.644 0 1.207.14 1.615.399v1.185c-.453-.38-.998-.574-1.633-.574-.644 0-.98.204-.98.583 0 .278.181.454.544.528l.98.232c.88.213 1.343.713 1.343 1.49 0 1.046-.834 1.676-2.186 1.676-.726.018-1.343-.148-1.851-.454zM13.546 25.005l-3.021-5.343a1.268 1.268 0 00-1.098-.648H4.12c-.454 0-.87.25-1.098.648l-.38.676h6.777l-.753 1.324H1.887l-.753 1.333h6.778l-.754 1.324H.381L0 25.005l.372.648H7.15l.744 1.324H1.116l.753 1.324h6.778l.753 1.324H2.622l.4.703c.226.398.644.648 1.097.648h5.308c.454 0 .87-.25 1.098-.648l3.02-5.323z" fill="#AEB2B7"></path></svg>