<svg xmlns:xlink="http://www.w3.org/1999/xlink" xmlns="http://www.w3.org/2000/svg" version="1.1" viewBox="0 0 121 120" class="svg-icon svg-fill" style="width: auto; height: 104px; color: var(--icon-default);" width="121"  height="120" ><g clip-path="url(#comcastbusinessp)" fill="#AEB2B7"><path pid="0" d="M31.435 55.864c-3.392 0-6.162-2.77-6.162-6.162s2.77-6.162 6.162-6.162 6.161 2.77 6.161 6.162c-.017 3.41-2.769 6.162-6.161 6.162zm0-13.812c-4.223 0-7.667 3.444-7.667 7.667s3.444 7.668 7.667 7.668 7.667-3.445 7.667-7.668c0-4.223-3.444-7.667-7.667-7.667zm66.081 7.754a530.368 530.368 0 01-3.272-1.696c-1.315-.675-1.782-1.264-1.782-2.268 0-1.402 1.142-2.302 2.925-2.302 1.038 0 2.06.45 2.648.797a.863.863 0 00.363.086.754.754 0 00.762-.744.779.779 0 00-.381-.658c-.744-.415-2.008-.986-3.375-.986-2.613 0-4.43 1.557-4.43 3.807 0 2.008 1.315 2.96 2.613 3.618.363.19 2.89 1.488 3.27 1.696 1.005.519 1.559 1.315 1.559 2.215 0 1.212-1.022 2.492-2.925 2.492-1.852 0-3.289-1.246-3.67-1.627l-.12-.12-1.126 1.02.139.122c.502.484 2.302 2.094 4.777 2.094 2.769 0 4.43-2.042 4.43-4.015-.017-1.437-.882-2.735-2.405-3.531zM15.72 43.558a6.17 6.17 0 014.36 1.8c.278.277.797.277 1.074 0a.76.76 0 00.225-.537.694.694 0 00-.225-.536l-.087-.087a7.63 7.63 0 00-5.33-2.146c-4.223 0-7.668 3.444-7.668 7.667s3.445 7.668 7.668 7.668c2.232 0 4.24-.952 5.642-2.493l-1.073-1.073a6.173 6.173 0 01-4.57 2.043c-3.392 0-6.16-2.77-6.16-6.162-.018-3.375 2.751-6.144 6.143-6.144zm51.957 0a6.1 6.1 0 014.344 1.8c.277.277.796.277 1.073 0a.76.76 0 00.225-.537.76.76 0 00-.225-.536l-.086-.087a7.63 7.63 0 00-5.33-2.146c-4.224 0-7.668 3.444-7.668 7.667s3.444 7.668 7.667 7.668c2.233 0 4.24-.952 5.642-2.493l-1.073-1.073a6.144 6.144 0 01-4.569 2.043c-3.392 0-6.162-2.77-6.162-6.162 0-3.375 2.77-6.144 6.162-6.144zm-12.98-1.506c-.277 0-.502.19-.623.415-.121.243-4.518 11.077-4.518 11.077S45.16 42.692 45.04 42.467c-.121-.242-.346-.415-.623-.415-.329 0-.588.242-.675.554-.087.311-2.562 13.967-2.562 13.967 0 .052-.017.087-.017.139 0 .38.312.675.675.675a.703.703 0 00.675-.554l2.146-11.683s4.137 10.212 4.258 10.454c.121.242.346.433.64.433.277 0 .52-.19.64-.433.122-.242 4.258-10.454 4.258-10.454l2.233 12.15h1.385s-2.614-14.383-2.7-14.694c-.104-.312-.346-.554-.675-.554zm24.974 8.083l2.285-5.608 2.284 5.608h-4.569zm2.268-8.083c-.295 0-.502.19-.64.433-.122.242-5.678 13.95-5.678 13.95a.693.693 0 00-.052.26c0 .38.295.674.675.674a.679.679 0 00.64-.432l2.164-5.297h5.798l2.302 5.643h1.471s-5.902-14.573-6.023-14.816c-.138-.225-.363-.415-.657-.415zm29.838.831a.768.768 0 00-.762-.762H102.5a.757.757 0 00-.762.762c0 .415.329.744.762.744h3.583v13.656h1.384V43.627h3.566c.415.017.744-.329.744-.744zM53.9 62.527c-.762 0-1.23.536-1.23 1.194v14.14h2.459v-14.14c0-.657-.468-1.194-1.23-1.194zm-27.883 9.277V63.72c0-.657-.484-1.194-1.229-1.194-.761 0-1.228.536-1.228 1.194v7.996c0 3.427 2.405 6.214 6.265 6.214 3.842 0 6.265-2.787 6.265-6.214v-9.12h-2.475v9.19c0 2.024-1.35 3.825-3.79 3.825-2.458.017-3.808-1.783-3.808-3.808zm59.521-6.784c.814 0 1.299-.52 1.299-1.195s-.502-1.194-1.299-1.194H78.01c-.693 0-1.195.502-1.195 1.194v12.877c0 .675.502 1.177 1.195 1.177h8.74V75.49h-7.477v-4.43h5.642c.848 0 1.333-.502 1.333-1.195 0-.692-.467-1.194-1.333-1.194h-5.642V65.02h6.266zm-70.2 10.488h-3.842v-4.552h3.842c1.766 0 2.614 1.02 2.614 2.284 0 1.247-.883 2.268-2.614 2.268zm-3.842-10.506h3.686c1.385 0 2.06.83 2.06 1.852 0 1.021-.744 1.852-2.06 1.852h-3.686v-3.704zm6.698 4.604c.415-.26 1.54-1.142 1.54-3.133 0-2.337-1.679-3.877-4.24-3.877h-5.262c-.71 0-1.194.485-1.194 1.194v14.054h6.767c2.735 0 4.639-1.99 4.639-4.552 0-2.7-1.817-3.478-2.25-3.686zm43.01-7.079c-.744 0-1.228.536-1.228 1.177v13.05c0 .657.57 1.177 1.228 1.177.64 0 1.212-.52 1.212-1.177v-9.416s5.988 7.65 7.563 9.675c.398.502.675.935 1.385.935s1.194-.52 1.194-1.177v-14.14h-2.423v10.558s-6.663-8.55-7.598-9.745c-.433-.554-.761-.917-1.333-.917zM38.946 75.68c.312.399 1.748 2.268 4.916 2.268 3.115 0 5.227-1.783 5.227-4.292 0-1.645-.64-2.96-3.081-4.137a459.429 459.429 0 01-2.475-1.194c-.97-.467-1.402-1.021-1.402-1.783 0-.796.658-1.661 2.267-1.661.917 0 1.627.294 1.99.467.191.087.624.294 1.04.294.536 0 1.124-.38 1.124-1.16 0-.657-.467-1.003-.883-1.194-.657-.311-1.678-.761-3.392-.761-2.717 0-4.725 1.713-4.725 4.102 0 2.18 1.471 3.271 3.237 4.12.328.155 1.644.795 2.007.968 1.125.537 1.714 1.056 1.714 1.99 0 1.022-.952 1.87-2.389 1.87-2.06 0-3.167-1.35-3.357-1.575l-1.818 1.679zm50.331 0c.312.399 1.766 2.268 4.933 2.268 3.098 0 5.21-1.783 5.21-4.292 0-1.645-.64-2.96-3.081-4.137-.64-.311-2.475-1.194-2.475-1.194-.97-.467-1.402-1.021-1.402-1.783 0-.796.658-1.661 2.267-1.661.918 0 1.61.294 1.99.467.191.087.624.294 1.04.294.536 0 1.124-.38 1.124-1.16 0-.657-.467-1.003-.883-1.194-.657-.311-1.696-.761-3.392-.761-2.717 0-4.725 1.713-4.725 4.102 0 2.18 1.471 3.271 3.237 4.12.346.155 1.661.795 2.025.968 1.107.537 1.696 1.056 1.696 1.99 0 1.022-.952 1.87-2.389 1.87-2.077 0-3.167-1.35-3.357-1.575l-1.818 1.679zm12.479 0c.311.399 1.748 2.268 4.915 2.268 3.098 0 5.227-1.783 5.227-4.292 0-1.645-.658-2.96-3.081-4.137a715.588 715.588 0 01-2.492-1.194c-.952-.467-1.385-1.021-1.385-1.783 0-.796.658-1.661 2.25-1.661.918 0 1.627.294 2.008.467.173.087.606.294 1.021.294.537 0 1.125-.38 1.125-1.16 0-.657-.467-1.003-.882-1.194-.658-.311-1.679-.761-3.393-.761-2.717 0-4.725 1.713-4.725 4.102 0 2.18 1.454 3.271 3.237 4.12.329.155 1.644.795 2.008.968 1.125.537 1.713 1.056 1.713 1.99 0 1.022-.952 1.87-2.388 1.87-2.06 0-3.168-1.35-3.358-1.575l-1.8 1.679z" fill="#AEB2B7"></path></g><defs><clipPath id="comcastbusinessp"><path pid="1" transform="translate(8 42)" d="M0 0h104.019v36H0z"></path></clipPath></defs></svg>