<svg xmlns:xlink="http://www.w3.org/1999/xlink" xmlns="http://www.w3.org/2000/svg" version="1.1" viewBox="0 0 144 120" class="svg-icon svg-fill" style="width: auto; height: 104px; color: var(--icon-default);" width="144"  height="120" ><g clip-path="url(#dashlanesp)" fill="#AEB2B7"><path pid="0" d="M46.114 66.64c.886 0 1.64-.198 2.264-.594a3.694 3.694 0 001.4-1.583 5.15 5.15 0 000-4.268 3.706 3.706 0 00-1.4-1.581c-.623-.393-1.378-.589-2.264-.589H44.58a.217.217 0 00-.216.216v8.183a.216.216 0 00.216.216h1.534zM41.1 55.5a.216.216 0 01.216-.216h5.1c1.462 0 2.737.319 3.825.956a6.52 6.52 0 012.497 2.557 7.664 7.664 0 010 7.077 6.439 6.439 0 01-2.497 2.558c-1.087.63-2.362.945-3.825.945h-5.1a.214.214 0 01-.2-.133.216.216 0 01-.016-.083v-13.66zm26.319 12.962c-.932-.836-1.423-1.993-1.471-3.47a.217.217 0 01.217-.224H69a.215.215 0 01.216.204c.033.667.236 1.197.609 1.587.409.43.97.645 1.68.645.604 0 1.07-.135 1.4-.403.33-.269.493-.651.49-1.148 0-.43-.123-.775-.371-1.036-.248-.262-.694-.52-1.339-.775l-2.537-.987c-.94-.349-1.65-.849-2.134-1.5-.483-.65-.725-1.432-.725-2.345a3.85 3.85 0 01.614-2.164 4 4 0 011.752-1.45c.758-.343 1.64-.514 2.648-.514 1.02 0 1.92.185 2.698.554.74.337 1.369.879 1.812 1.56.4.64.62 1.375.64 2.129a.22.22 0 01-.06.16.217.217 0 01-.156.067h-2.83a.216.216 0 01-.216-.204c-.031-.559-.197-.994-.497-1.306-.335-.35-.818-.523-1.45-.523-.523 0-.935.124-1.238.372a1.247 1.247 0 00-.452 1.017 1.31 1.31 0 00.442.996c.295.276.792.555 1.49.836l2.336.926c.966.376 1.68.893 2.144 1.55.463.657.695 1.463.694 2.417a4.104 4.104 0 01-.644 2.294 4.177 4.177 0 01-1.812 1.52c-.778.356-1.684.533-2.718.534-1.731 0-3.087-.44-4.067-1.319M91.18 55.07h2.827a.214.214 0 01.216.215v10.978a.217.217 0 00.217.216h4.805a.217.217 0 01.217.216v2.467a.216.216 0 01-.217.216H91.18a.213.213 0 01-.2-.133.213.213 0 01-.016-.083V55.285a.213.213 0 01.133-.2.213.213 0 01.083-.015m23.435.215h2.997a.215.215 0 01.19.114l4.424 8.249a.218.218 0 00.244.106.215.215 0 00.163-.21v-8.041a.218.218 0 01.216-.216h2.688a.212.212 0 01.153.063.215.215 0 01.064.153v13.661a.214.214 0 01-.064.153.215.215 0 01-.153.063h-2.991a.218.218 0 01-.196-.112l-4.425-8.249a.216.216 0 00-.406.098v8.042a.214.214 0 01-.064.153.214.214 0 01-.153.063h-2.688a.214.214 0 01-.152-.063.214.214 0 01-.064-.153V55.501c0-.057.023-.112.064-.153a.214.214 0 01.152-.063m12.771 0h8.184a.218.218 0 01.217.216v2.185a.216.216 0 01-.064.153.214.214 0 01-.153.064h-4.922a.218.218 0 00-.217.215v2.769a.217.217 0 00.217.217h4.922a.217.217 0 01.217.22v2.126a.215.215 0 01-.064.152.217.217 0 01-.153.063h-4.922a.218.218 0 00-.217.216v2.669a.214.214 0 00.064.153.217.217 0 00.153.062h4.922c.058 0 .113.023.153.064.041.04.064.096.064.153v2.185a.218.218 0 01-.217.216h-8.184a.214.214 0 01-.152-.063.214.214 0 01-.064-.153V55.501c0-.057.023-.112.064-.153a.214.214 0 01.152-.063M57.861 64.31l1.393-4.92a.16.16 0 01.249-.084c.028.02.047.05.057.084l1.392 4.92a.208.208 0 01-.2.266h-2.69a.209.209 0 01-.2-.265zm7.897 4.86l-4.684-13.777a.158.158 0 00-.15-.108H57.87a.157.157 0 00-.15.108L53.056 69.17a.159.159 0 00.15.21h3.058a.217.217 0 00.208-.157l.588-2.087h4.69l.588 2.087a.216.216 0 00.208.157h3.058a.16.16 0 00.157-.136.16.16 0 00-.007-.074m39.492-4.86l1.393-4.92a.159.159 0 01.306 0l1.394 4.92c.008.032.01.064.003.096a.203.203 0 01-.039.087.21.21 0 01-.166.083h-2.689a.21.21 0 01-.197-.265h-.005zm7.897 4.86l-4.684-13.775a.154.154 0 00-.15-.108h-3.054a.156.156 0 00-.15.108l-4.664 13.775a.171.171 0 00-.007.075.16.16 0 00.029.069.154.154 0 00.129.066h3.057a.219.219 0 00.209-.157l.588-2.087h4.689l.588 2.087a.217.217 0 00.208.157h3.058c.025 0 .05-.006.073-.018a.164.164 0 00.084-.118.156.156 0 00-.007-.074M89.261 55.285h-2.83a.216.216 0 00-.215.216v5.265a.216.216 0 01-.217.217h-4.44a.216.216 0 01-.215-.217v-5.373a.216.216 0 00-.217-.216h-2.83a.216.216 0 00-.215.216v13.77a.217.217 0 00.216.215h2.83a.216.216 0 00.216-.216v-5.165a.216.216 0 01.216-.216H86a.217.217 0 01.216.216v5.165a.216.216 0 00.216.216h2.83a.216.216 0 00.215-.216V55.501a.216.216 0 00-.216-.216m-67.567 1.657l3.575 1.312c.577.204 1.28-.069 1.28-.496v-9.056c0-.207-.173-.392-.453-.49l-3.575-1.313c-.577-.204-1.28.068-1.28.49v9.056c0 .207.174.398.453.497zm0 16.256l3.575 1.312c.577.204 1.28-.068 1.28-.495v-9.056c0-.207-.173-.397-.453-.496l-3.575-1.312c-.577-.205-1.28.068-1.28.496V72.7c0 .207.174.397.453.495m-6.62-19.282l3.575 1.312c.578.204 1.275-.068 1.275-.496v-9.852c0-.207-.174-.397-.453-.496L15.9 43.07c-.578-.204-1.28.067-1.28.49v9.857c0 .207.174.398.453.496zm0 21.707l3.575 1.311c.578.204 1.275-.067 1.275-.496v-9.827c0-.207-.174-.397-.453-.496l-3.57-1.311c-.578-.204-1.28.068-1.28.495v9.827c0 .207.174.397.453.496zm-1.765-30.373c0-.207-.175-.392-.454-.496L9.28 43.438c-.578-.204-1.281.069-1.281.497v30.82c0 .206.174.397.453.495l3.575 1.314c.577.203 1.28-.07 1.28-.497v-30.82zm19.405 8.182l-3.575-1.312c-.578-.204-1.275.068-1.275.496v14.873c0 .207.174.397.453.495l3.575 1.313c.578.204 1.28-.068 1.28-.496V53.925c0-.207-.174-.397-.453-.496" fill="#AEB2B7"></path></g><defs><clipPath id="dashlanesp"><path pid="1" transform="translate(8 43)" d="M0 0h127.786v34H0z"></path></clipPath></defs></svg>