<svg xmlns:xlink="http://www.w3.org/1999/xlink" xmlns="http://www.w3.org/2000/svg" version="1.1" viewBox="0 0 148 104" class="svg-icon svg-fill" style="width: auto; height: 104px; color: var(--icon-default);" width="171"  height="120" ><path pid="0" d="M27.65 52.11c0 5.458-4.388 9.89-9.825 9.89C12.39 62 8 57.568 8 52.11c0-5.46 4.389-9.892 9.825-9.892 5.437 0 9.826 4.433 9.826 9.891zm10.765 0c0 5.13-2.205 9.3-4.913 9.3-2.707 0-4.912-4.17-4.912-9.3 0-5.132 2.205-9.302 4.912-9.302 2.708 0 4.913 4.148 4.913 9.301zm4.41 0c0 4.606-.764 8.34-1.724 8.34-.961 0-1.725-3.734-1.725-8.34 0-4.608.764-8.341 1.725-8.341.96 0 1.724 3.733 1.724 8.34zm27.097-9.04h.022v-.218h-5.59l-5.175 12.205-5.196-12.184h-6.026v.219h.021c1.027.24 1.529.567 1.529 1.812v14.498c0 1.244-.524 1.572-1.529 1.812h-.021v.218h4.083v-.218h-.022c-1.026-.24-1.529-.568-1.529-1.812V45.755l6.66 15.677h.37l6.857-16.113v14.454c-.088.982-.59 1.288-1.529 1.485h-.021v.218h7.118v-.218h-.022c-.917-.219-1.441-.503-1.529-1.485V44.926c0-1.267.524-1.616 1.529-1.856zm3.253 9.607c.11-2.598 1.048-4.476 2.62-4.52.48 0 .895.175 1.201.48.677.656.983 2.01.939 4.04h-4.76zm-.065.72h8.34v-.043c-.022-1.987-.59-3.537-1.703-4.607-.96-.917-2.38-1.42-3.886-1.42h-.044c-.786 0-1.725.197-2.402.525-.764.349-1.44.895-2.009 1.593-.917 1.136-1.462 2.642-1.593 4.367 0 .044 0 .11-.022.153v.153c-.022.24-.022.48-.022.72.087 3.887 2.183 6.987 5.917 6.987 3.275 0 5.175-2.38 5.655-5.59l-.24-.087c-.83 1.725-2.336 2.773-4.04 2.642-2.336-.174-4.126-2.532-3.951-5.393zm17.75 5.262c-.283.655-.85 1.005-1.615 1.005-.764 0-1.463-.524-1.965-1.485-.524-1.026-.808-2.467-.808-4.192 0-3.56 1.114-5.873 2.839-5.873.72 0 1.288.349 1.55.982v9.563zm5.547 2.555c-1.027-.24-1.529-.59-1.529-1.9V42l-6.2 1.834v.218h.043c.852-.065 1.441.044 1.769.35.262.24.393.611.393 1.135v2.38c-.612-.393-1.332-.59-2.227-.59-1.79 0-3.428.743-4.608 2.118-1.222 1.42-1.877 3.363-1.877 5.634 0 4.039 1.987 6.746 4.934 6.746 1.725 0 3.123-.939 3.756-2.554v2.14h5.567v-.219l-.021.022zm5.305-16.856c0-1.266-.939-2.205-2.205-2.205-1.245 0-2.227.96-2.227 2.205s.983 2.205 2.227 2.205c1.245 0 2.205-.939 2.205-2.205zm1.463 16.856c-1.026-.24-1.528-.59-1.528-1.9V47.393l-5.568 1.594v.218h.044c1.2.11 1.528.524 1.528 1.922v10.305h5.546v-.218h-.022zm14.236 0c-1.026-.24-1.528-.59-1.528-1.9V47.393l-5.284 1.55v.219h.022c.982.109 1.266.545 1.266 1.943v7.533c-.327.655-.939 1.026-1.681 1.07-1.201 0-1.878-.808-1.878-2.293V47.393l-5.568 1.594v.218h.044c1.201.11 1.528.524 1.528 1.922v6.375c0 .437.044.895.11 1.332l.109.437c.48 1.681 1.703 2.576 3.624 2.576 1.638 0 3.079-1.004 3.712-2.598v2.205h5.568v-.218l-.044-.022zm21.594.218v-.218h-.022c-1.113-.262-1.528-.742-1.528-1.725v-8.1c0-2.533-1.419-4.04-3.799-4.04-1.725 0-3.188 1.005-3.756 2.555-.436-1.66-1.725-2.555-3.646-2.555-1.681 0-2.991.874-3.537 2.38v-2.336l-5.568 1.528v.219h.044c1.179.109 1.528.524 1.528 1.9v10.392h5.197v-.218h-.022c-.874-.197-1.157-.59-1.157-1.55v-9.302c.24-.545.698-1.2 1.637-1.2 1.157 0 1.747.807 1.747 2.38v9.89h5.196v-.218h-.021c-.874-.197-1.158-.59-1.158-1.55v-8.275c0-.306-.021-.612-.065-.917.24-.59.742-1.289 1.703-1.289 1.179 0 1.747.786 1.747 2.38v9.891h5.48v-.022z" fill="#AEB2B7"></path></svg>