<svg xmlns:xlink="http://www.w3.org/1999/xlink" xmlns="http://www.w3.org/2000/svg" version="1.1" viewBox="0 0 80 120" class="svg-icon svg-fill" style="width: auto; height: 104px; color: var(--icon-default);" width="80"  height="120" ><g clip-path="url(#pitchsp)" fill="#AEB2B7"><path pid="0" d="M50.928 65.521a4.131 4.131 0 11.039-4.665l3.053-1.802a7.672 7.672 0 10-12.626 8.698 7.671 7.671 0 0012.61-.46l-3.075-1.771zM59.34 49h-3.542v21.24h3.54v-7.08a4.13 4.13 0 017.052-2.92 4.13 4.13 0 011.21 2.92v7.08h3.541v-7.768a6.981 6.981 0 00-8.223-6.87 6.984 6.984 0 00-3.579 1.817V49h.001zm-24.785 0h-3.54v16.52a5.309 5.309 0 008.802 4.001l-1.71-2.902a1.766 1.766 0 01-1.388.67h-.394a1.77 1.77 0 01-1.77-1.769v-5.9h3.54v-3.54h-3.54V49zm-7.669 0a1.967 1.967 0 100 3.935 1.967 1.967 0 000-3.935zm1.77 21.24V56.08h-3.54v14.16h3.54z" fill="#AEB2B7"></path><path pid="1" fill-rule="evenodd" clip-rule="evenodd" d="M8 70.24h3.54v-4.13h3.246a8.558 8.558 0 007.906-11.829A8.556 8.556 0 0014.786 49H8v21.24zm3.54-17.7h3.246a5.017 5.017 0 013.547 8.56 5.017 5.017 0 01-3.547 1.47h-3.245V52.54h-.001z" fill="#AEB2B7"></path></g><defs><clipPath id="pitchsp"><path pid="2" transform="translate(8 49)" d="M0 0h63.144v22H0z"></path></clipPath></defs></svg>