<svg xmlns:xlink="http://www.w3.org/1999/xlink" xmlns="http://www.w3.org/2000/svg" version="1.1" viewBox="0 0 100 120" class="svg-icon svg-fill" style="width: auto; height: 104px; color: var(--icon-default);" width="100"  height="120" ><g clip-path="url(#rutersp)" fill="#AEB2B7"><path pid="0" d="M91.264 57.871l.534-2.747h-4.326l.8-4.12h-2.884l-.8 4.12H80.26l.8-4.12h-2.885l-.8 4.12H73.05l-.534 2.747h4.327l-.8 4.12h-4.327l-.533 2.748h4.326l-.8 4.12h2.884l.801-4.12h4.327l-.801 4.12h2.885l.8-4.12h4.327l.535-2.747H86.14l.8-4.121h4.325zm-8.012 4.12h-4.327l.801-4.12h4.326l-.8 4.12zm-65.775 6.86l-3.485-7.121h-2.507v7.12H8V51h6.995c3.635 0 5.793 2.482 5.793 5.465 0 2.508-1.528 4.061-3.26 4.688l3.985 7.698h-4.036zM14.77 54.109h-3.286v4.714h3.284c1.528 0 2.532-.978 2.532-2.357 0-1.379-1.003-2.358-2.532-2.358l.002.001zm16.6 14.742v-1.204c-.853.902-2.057 1.353-3.26 1.353-1.304 0-2.357-.426-3.084-1.153-1.053-1.054-1.328-2.281-1.328-3.71v-8.349h3.259v7.897c0 1.78 1.128 2.382 2.156 2.382 1.027 0 2.182-.601 2.182-2.382v-7.897h3.26v13.063H31.37zm10.93 0c-2.658 0-3.785-1.88-3.785-3.735V58.25h-1.38v-2.48h1.38v-3.465h3.259v3.465h2.306v2.482h-2.306v6.663c0 .752.349 1.178 1.127 1.178h1.179v2.759H42.3zm7.216-5.517c0 1.68 1.027 2.908 2.858 2.908 1.429 0 2.13-.401 2.958-1.228l1.98 1.93C55.985 68.274 54.707 69 52.35 69c-3.083 0-6.041-1.404-6.041-6.693 0-4.262 2.306-6.669 5.69-6.669 3.636 0 5.692 2.657 5.692 6.241v1.455h-8.173zM54.18 59.7c-.35-.777-1.078-1.353-2.182-1.353-1.105 0-1.831.577-2.183 1.353-.2.477-.276.83-.3 1.404h4.967c-.026-.577-.102-.928-.302-1.404zm14.941-3.615c-.598-.318-1.252-.446-2.053-.446-1.404 0-2.658.652-3.285 1.404v-1.254H60.6v13.063h3.26v-7.873c0-1.655 1.106-2.31 2.106-2.407 1.189-.114 1.838.49 1.838.49l1.319-2.977z" fill="#AEB2B7"></path></g><defs><clipPath id="rutersp"><path pid="1" transform="translate(8 51)" d="M0 0h83.798v18H0z"></path></clipPath></defs></svg>