<svg xmlns:xlink="http://www.w3.org/1999/xlink" xmlns="http://www.w3.org/2000/svg" version="1.1" viewBox="0 0 143 120" class="svg-icon svg-fill" style="width: auto; height: 104px; color: var(--icon-default);" width="143"  height="120" ><g clip-path="url(#starsp)" fill-rule="evenodd" clip-rule="evenodd" fill="#AEB2B7"><path pid="0" d="M125.928 53.34a1.453 1.453 0 00-.051 2.902h3.62a4.788 4.788 0 014.801 4.78 4.792 4.792 0 01-4.779 4.802h-7.264a.456.456 0 01-.424-.337l-1.055-2.579a.29.29 0 01.249-.425h8.496a1.45 1.45 0 000-2.9h-3.584a4.761 4.761 0 01-4.724-4.792A4.761 4.761 0 01125.937 50h7.508c.23 0 .417.152.338.337l-1.144 2.667a.506.506 0 01-.427.337h-6.284zm-50.51 2.902l-3.992 9.055c-.131.29-.2.525-.49.525h-2.637c-.379 0-.588-.104-.403-.525l6.447-14.825c.132-.247.215-.428.504-.428h1.142c.29 0 .367.183.504.428l6.447 14.836c.183.42-.026.525-.403.525H79.9c-.29 0-.366-.234-.49-.525l-3.992-9.066zm19.722 9.582a.336.336 0 01-.337-.337v-15.15A.337.337 0 0195.14 50h2.664a.338.338 0 01.339.337v12.146h6.775a.288.288 0 01.25.425l-1.098 2.58a.479.479 0 01-.471.336h-8.46zm-9.477-12.483h-4.24a.337.337 0 01-.336-.337v-2.667a.337.337 0 01.337-.337h11.81a.338.338 0 01.339.337v2.667a.339.339 0 01-.34.337h-4.23v12.146a.339.339 0 01-.34.337h-2.662a.337.337 0 01-.337-.337V53.341h-.001zm27.271 2.9l-3.992 9.056c-.132.29-.201.525-.491.525h-2.636c-.379 0-.588-.104-.403-.525l6.447-14.825c.132-.247.212-.428.503-.428h1.141c.291 0 .366.183.505.428l6.447 14.836c.184.42-.025.525-.402.525h-2.637c-.291 0-.366-.234-.491-.525l-3.991-9.055v-.011zM49.086 50h7.09c2.747 0 4.966 2.295 4.966 5.128a5.13 5.13 0 01-3.047 4.724l3.662 5.454c.088.421-.157.526-.535.526H58.45c-.291 0-.403-.279-.578-.526l-3.498-5.055H52.09v5.236a.339.339 0 01-.338.337h-2.665a.337.337 0 01-.337-.337v-15.15a.337.337 0 01.337-.337zm7.09 3.34H52.09v3.561h4.087a1.772 1.772 0 000-3.546v-.014zM40.14 56.243l-3.992 9.055c-.131.29-.2.525-.49.525H33.02c-.377 0-.586-.104-.403-.525l6.45-14.825c.13-.247.212-.428.503-.428h1.14c.291 0 .367.183.504.428l6.449 14.836c.183.42-.026.525-.405.525H44.62c-.29 0-.358-.234-.49-.525l-3.99-9.066zM26.206 53.34h-4.76c-.231 0-.378-.152-.264-.425l1.113-2.579c.055-.132.194-.337.38-.337h11.102a.339.339 0 01.34.337v2.667a.339.339 0 01-.34.337h-4.231v12.146a.339.339 0 01-.339.337h-2.664a.337.337 0 01-.337-.337V53.341z" fill="#AEB2B7"></path><path pid="1" d="M13.035 53.34a1.452 1.452 0 00-.051 2.902h3.621a4.787 4.787 0 014.801 4.78 4.792 4.792 0 01-4.779 4.802H8.35c-.23 0-.397-.196-.337-.337l1.1-2.666a.458.458 0 01.38-.337h7.14a1.45 1.45 0 000-2.902h-3.588a4.76 4.76 0 01-4.724-4.79A4.762 4.762 0 0113.044 50h7.69c.183 0 .366.13.295.337l-1.152 2.667a.452.452 0 01-.426.337h-6.409M75.424 70l-2.637-5.275h5.185L75.424 70z" fill="#AEB2B7"></path></g><defs><clipPath id="starsp"><path pid="2" transform="translate(8 50)" d="M0 0h126.221v20H0z"></path></clipPath></defs></svg>